# xmcd
# 
# Track frame offsets:
#     182
#     13035
#     38522
#     53822
#     80860
#     105285
#     122345
#     151727
#     175307
#     194975
# 
# Disc length: 2893
# 
# Revision: 4
# Processed by: cddbd v1.5.2PL0 Copyright (c) Steve Scherf et al.
# Submitted via: BonkEnc v1.0.5
# 
DISCID=770b4b0a
DTITLE=Various Artist - Jazz Paino Vol3
DYEAR=0
DGENRE=Jazz
TTITLE0=Erroll Garner - Misty
TTITLE1=Mccoy Tyner - Satin Doll
TTITLE2=Jaki Byard - Lullaby Of Birdland
TTITLE3=Bill.Evans - Autumn Leaves
TTITLE4=D.Pearson - I'm A Fool To Want You
TTITLE5=Oscar Peterson - Geogia On My Mind
TTITLE6=Wynton Kelly - Softly As In A morning Sunrise
TTITLE7=M.Waldron - All Alone
TTITLE8=junior Mance - Whisper Not
TTITLE9=Jaki Byard - Round Midnight
EXTD=
EXTT0=
EXTT1=
EXTT2=
EXTT3=
EXTT4=
EXTT5=
EXTT6=
EXTT7=
EXTT8=
EXTT9=
PLAYORDER=
